<?xml version="1.0" encoding="UTF-8"?>
<svg xmlns="http://www.w3.org/2000/svg" xmlns:xlink="http://www.w3.org/1999/xlink" viewBox="0 0 348.22 69.78">
  <defs>
    <style>
      .cls-1 {
        fill: #fff;
      }
    </style>
    <clipPath id="clip-path">
      <path class="cls-1" d="M43.68,38c3.76-8,8-16.91,12.93-24.27h0c1.12.27,2.2.51,3.28.71h0C55,21.26,50.9,30,46.64,38.34h0c-3.75,7.35-7.57,15.94-14.22,19.72h0C36.45,52.89,40,45.78,43.68,38"></path>
    </clipPath>
  </defs>
  <g id="Layer_2" data-name="Layer 2">
    <g id="Layer_2-2" data-name="Layer 2">
      <g>
        <g>
          <path class="cls-1" d="M43.68,38c3.76-8,8-16.91,12.93-24.27h0c1.12.27,2.2.51,3.28.71h0C55,21.26,50.9,30,46.64,38.34h0c-3.75,7.35-7.57,15.94-14.22,19.72h0C36.45,52.89,40,45.78,43.68,38"></path>
          <path class="cls-1" d="M66.8,12.65c6.53-7.9,14.22-8.86,16.42-7h0c1.76,1.48,0,5.32-7,6.45h0a44,44,0,0,1-7.16.63h0c-.77,0-1.53,0-2.31-.07"></path>
          <path class="cls-1" d="M61.73,12c-1.06-.21-2.19-.45-3.38-.72h0a40.09,40.09,0,0,1,9-9.14h0c-4,.59-7.83,3.82-11.45,8.53h0c-4.16-1.1-9.11-2.63-15.53-4.63h0c-8.72-2.68-13-4.16-22.85-4.16h0c-4.32,0-14,3.84-12.5,8.78H5c1.42,4.49,6.81,3.06,6,1.35h0c-1.79-1-3.16-5.11,4.77-7.26h0c4.46-1.23,13,.06,23.28,3.42h0c5.55,1.82,10.48,3.62,15.11,4.92h0c-4.49,6.54-8.66,15.19-12.62,23.6h0c-4,8.62-7.74,17.06-12.57,22.77h0a15.61,15.61,0,0,1-4.18.5h0C18.43,59.88,11.47,52,18,46.17h0c-2.82-1-8.94,1.63-8,7.35h0c1.17,7.14,10.51,9.1,16.08,8.92h0a16.37,16.37,0,0,1-7.8,3.91h0c3.9.16,7.3-1.4,10.43-4.18h0c9.71-1.74,16.1-11.69,22.55-23h0C55.71,31.24,60.31,21.6,65,15h0c14.25.9,22.41-3.78,21.86-8.59h0c-.28-2.4-2.08-4.55-7.18-4.55h0c-7.34,0-13,4-17.93,10.12"></path>
        </g>
        <polygon class="cls-1" points="8.07 26.03 8.07 18.2 16.38 18.2 16.38 26.03 24.44 26.03 24.44 34.09 16.38 34.09 16.38 41.94 8.07 41.94 8.07 34.09 0 34.09 0 26.03 8.07 26.03"></polygon>
        <polygon class="cls-1" points="113.45 57.78 109.11 57.78 109.11 69.56 107.75 69.56 107.75 57.78 103.44 57.78 103.44 56.64 113.45 56.64 113.45 57.78"></polygon>
        <polygon class="cls-1" points="127.29 69.56 125.98 69.56 125.98 63.27 117.78 63.27 117.78 69.56 116.44 69.56 116.44 56.64 117.78 56.64 117.78 62.2 125.98 62.2 125.98 56.64 127.29 56.64 127.29 69.56"></polygon>
        <path class="cls-1" d="M143,69.56h-1.5l-1.85-4.11H133l-1.77,4.11h-1.45l5.76-12.92h1.39Zm-3.79-5.12-3-6.5-2.78,6.5Z"></path>
        <rect class="cls-1" x="145.84" y="56.64" width="1.33" height="12.91"></rect>
        <polygon class="cls-1" points="162.5 69.56 161.08 69.56 152.9 58.55 153.03 69.56 151.66 69.56 151.66 56.64 153.03 56.64 161.26 67.77 161.17 56.64 162.5 56.64 162.5 69.56"></polygon>
        <path class="cls-1" d="M178.19,69.56h-1.52l-1.84-4.11h-6.59l-1.8,4.11H165l5.76-12.92h1.4Zm-3.8-5.12-3-6.5-2.76,6.5Z"></path>
        <polygon class="cls-1" points="192.1 69.56 190.32 69.56 184.59 62.67 182.02 64.77 182.02 69.56 180.7 69.56 180.7 56.64 182.02 56.64 182.02 63.39 190.02 56.64 191.83 56.64 185.46 61.93 192.1 69.56"></polygon>
        <path class="cls-1" d="M206.08,69.56h-1.52l-1.84-4.11h-6.6l-1.78,4.11h-1.45l5.75-12.92H200Zm-3.81-5.12-3-6.5-2.77,6.5Z"></path>
        <path class="cls-1" d="M220,69.56h-1.73l-1.9-2.73a15.75,15.75,0,0,0-1.68-2.19,3.68,3.68,0,0,0-1.21-.75,3.8,3.8,0,0,0-1.51-.27h-2v5.94h-1.34V56.64h5.94a5.69,5.69,0,0,1,2.32.42,3.08,3.08,0,0,1,2,3q0,3.09-4.11,3.45a6.57,6.57,0,0,1,2.6,2.23ZM209.92,57.72v4.85h3.74q3.74,0,3.74-2.49a2.23,2.23,0,0,0-.2-.94,2.1,2.1,0,0,0-.64-.77,2.69,2.69,0,0,0-1.12-.49,7.75,7.75,0,0,0-1.74-.16Z"></path>
        <rect class="cls-1" x="222.89" y="56.64" width="1.33" height="12.91"></rect>
        <polygon class="cls-1" points="239.55 69.56 238.12 69.56 229.93 58.55 230.07 69.56 228.71 69.56 228.71 56.64 230.07 56.64 238.31 67.77 238.22 56.64 239.55 56.64 239.55 69.56"></polygon>
        <polygon class="cls-1" points="260.81 69.56 259.52 69.56 259.52 63.27 251.31 63.27 251.31 69.56 249.98 69.56 249.98 56.64 251.31 56.64 251.31 62.2 259.52 62.2 259.52 56.64 260.81 56.64 260.81 69.56"></polygon>
        <path class="cls-1" d="M277.63,63.12a6.66,6.66,0,0,1-1.76,4.82,6.34,6.34,0,0,1-4.82,1.84,7,7,0,0,1-3.49-.81,6.07,6.07,0,0,1-2.27-2.31,7.15,7.15,0,0,1-.83-3.54,6.75,6.75,0,0,1,1.76-4.87,6.4,6.4,0,0,1,4.83-1.82,7.09,7.09,0,0,1,3.51.82,6.07,6.07,0,0,1,2.27,2.31,7.46,7.46,0,0,1,.8,3.56m-1.4,0A5.94,5.94,0,0,0,274.84,59a5.43,5.43,0,0,0-7.62,0,6.72,6.72,0,0,0,0,8.17,4.84,4.84,0,0,0,3.8,1.56,5.21,5.21,0,0,0,2.72-.69,4.85,4.85,0,0,0,1.8-2,6.39,6.39,0,0,0,.66-3"></path>
        <path class="cls-1" d="M280.38,65.68l1.32-.11A3.25,3.25,0,0,0,282.86,68a4.26,4.26,0,0,0,2.67.8,5.7,5.7,0,0,0,2.06-.33,2.66,2.66,0,0,0,1.29-1,2.43,2.43,0,0,0,.44-1.38c0-1.31-1.23-2.16-3.71-2.56A8.1,8.1,0,0,1,282,62.23,2.84,2.84,0,0,1,281,59.86a2.91,2.91,0,0,1,1.26-2.51,5.3,5.3,0,0,1,3.23-.92,5.78,5.78,0,0,1,3.43.89,3.4,3.4,0,0,1,1.31,2.75l-1.3,0c-.16-1.78-1.27-2.66-3.33-2.66a4.24,4.24,0,0,0-2.37.61,2,2,0,0,0-.94,1.7c0,1.23,1.13,2.06,3.37,2.47a10.41,10.41,0,0,1,3.76,1.31A2.79,2.79,0,0,1,290.59,66a3.54,3.54,0,0,1-.33,1.54,3.24,3.24,0,0,1-1,1.2,5.24,5.24,0,0,1-1.61.78,6.77,6.77,0,0,1-2,.27c-3.21,0-5-1.36-5.23-4.09"></path>
        <path class="cls-1" d="M295.42,64.1v5.46h-1.36V56.64H299a5.26,5.26,0,0,1,3.37,1,3.29,3.29,0,0,1,1.2,2.73A3.51,3.51,0,0,1,302.38,63a3.53,3.53,0,0,1-1.44.8,6.43,6.43,0,0,1-2,.27Zm0-6.32V63h3.17c2.38,0,3.56-.89,3.56-2.64s-1.18-2.61-3.56-2.61Z"></path>
        <rect class="cls-1" x="307.22" y="56.64" width="1.33" height="12.91"></rect>
        <polygon class="cls-1" points="321.83 57.78 317.47 57.78 317.47 69.56 316.12 69.56 316.12 57.78 311.8 57.78 311.8 56.64 321.83 56.64 321.83 57.78"></polygon>
        <path class="cls-1" d="M336.31,69.56H334.8L333,65.45h-6.61l-1.79,4.11h-1.44l5.76-12.92h1.39Zm-3.79-5.12-3-6.5-2.76,6.5Z"></path>
        <polygon class="cls-1" points="347.23 69.56 338.79 69.56 338.79 56.64 340.12 56.64 340.12 68.51 347.23 68.51 347.23 69.56"></polygon>
        <path class="cls-1" d="M103.37,15.35l.28-7.3-4.21,7.72H96.8L94.12,6.6c-.17,0-.28-.25-.39-.74a.92.92,0,0,0-.42-.6,1.33,1.33,0,0,0-.38-.13V0h2.13a1.15,1.15,0,0,1,1,.53,1,1,0,0,1,.42.47,1.19,1.19,0,0,1,.1.4l2.34,7L103.73,0h3.94V38.9l.48,0a6.63,6.63,0,0,1,.83,0,5.36,5.36,0,0,1,3.93,1.6,5.49,5.49,0,0,1,1.6,4.05A5.46,5.46,0,0,1,109,50a5.43,5.43,0,0,1-4-1.6,5.29,5.29,0,0,1-1.6-3.92ZM109,46.16a1.75,1.75,0,0,0,1.35-.56,2,2,0,0,0,.48-1.31,1.88,1.88,0,0,0-.48-1.33,1.74,1.74,0,0,0-1.35-.54,1.69,1.69,0,0,0-1.36.57,2,2,0,0,0-.46,1.3,2,2,0,0,0,.51,1.31,1.73,1.73,0,0,0,1.31.56"></path>
        <path class="cls-1" d="M127.86,41.43v8.31h-4.39V34.32l-.35,0c-.19,0-.45,0-.79,0a5.59,5.59,0,0,1-4-1.62,5.45,5.45,0,0,1-1.69-4.09,5.14,5.14,0,0,1,1.69-4,5.7,5.7,0,0,1,4-1.56,5.35,5.35,0,0,1,5.53,5.52v5.65L129,32.25l6.12-8.84h1.31a6.39,6.39,0,0,1,4,1c.82.79,1.23,2.24,1.23,4.33v21h-4.44V28.2h-.36Zm-5.53-14.36a1.63,1.63,0,0,0-1.28.53,1.89,1.89,0,0,0-.48,1.26,2,2,0,0,0,.48,1.31,1.56,1.56,0,0,0,1.28.56,1.68,1.68,0,0,0,1.34-.53,2,2,0,0,0,.46-1.34,1.87,1.87,0,0,0-.46-1.26,1.72,1.72,0,0,0-1.34-.53"></path>
        <path class="cls-1" d="M156.89,36.25a14.39,14.39,0,0,0,2.4.2c.39,0,.72,0,1,0s.45,0,.54,0v3.85h-2.46a8.74,8.74,0,0,0-3.23.5A2.24,2.24,0,0,0,154,43a2.31,2.31,0,0,0,.63,1.93,4,4,0,0,0,2.3.48h6.55a2.64,2.64,0,0,0,1.62-.41,2.55,2.55,0,0,0,.43-1.72V23.41h4.45v21c0,2.13-.44,3.6-1.32,4.4-.73.62-2,.92-3.94.92h-9.84a6.4,6.4,0,0,1-3.93-.92c-.88-.8-1.33-2.27-1.33-4.4V43a5.17,5.17,0,0,1,1.1-3.62,5.56,5.56,0,0,1,1.82-1.43,8.13,8.13,0,0,1-2.25-2.06c-.93-1.11-1.43-2.93-1.46-5.46A7.23,7.23,0,0,1,150.68,25a6.14,6.14,0,0,1,4.46-1.89,5.75,5.75,0,0,1,4.07,1.56,5.13,5.13,0,0,1,1.68,4,5.37,5.37,0,0,1-1.64,4,5.57,5.57,0,0,1-4.11,1.6,4.86,4.86,0,0,1-.6,0,1.3,1.3,0,0,0-.29,0,2.86,2.86,0,0,0,.63,1,4,4,0,0,0,2,1m-1.75-9.18a1.62,1.62,0,0,0-1.32.53,1.9,1.9,0,0,0-.44,1.26,1.92,1.92,0,0,0,.47,1.34,1.62,1.62,0,0,0,1.29.53,1.71,1.71,0,0,0,1.35-.53,2,2,0,0,0,.46-1.34,1.87,1.87,0,0,0-.46-1.26,1.74,1.74,0,0,0-1.35-.53"></path>
        <path class="cls-1" d="M186.13,40.7l-.14,3c.18-.21.62-.68,1.3-1.41a33.39,33.39,0,0,1,2.84-2.63,20.14,20.14,0,0,1,2.52-1.8,7.07,7.07,0,0,1,1.51-.72V23.41h4.29V36.58a12,12,0,0,1,2.41.57,7.74,7.74,0,0,1,3.22,2.16A6.68,6.68,0,0,1,205.75,44a5.45,5.45,0,0,1-1.93,4.45,6.44,6.44,0,0,1-4.2,1.6,5.91,5.91,0,0,1-3.9-1.3A4.52,4.52,0,0,1,194.16,45V42.09c-.34,0-1.45.85-3.3,2.54a46.38,46.38,0,0,0-3.2,3.36q-1.54,1.75-5.91,1.75V34.32l-.36,0c-.19,0-.46,0-.8,0a5.57,5.57,0,0,1-4-1.62,5.49,5.49,0,0,1-1.69-4.09,5.18,5.18,0,0,1,1.69-4,5.68,5.68,0,0,1,4-1.56,5.35,5.35,0,0,1,5.54,5.52Zm-5.54-13.63a1.66,1.66,0,0,0-1.28.53,1.87,1.87,0,0,0-.46,1.26,2,2,0,0,0,.46,1.31,1.59,1.59,0,0,0,1.28.56,1.68,1.68,0,0,0,1.35-.53,2,2,0,0,0,.48-1.34,1.89,1.89,0,0,0-.48-1.26,1.71,1.71,0,0,0-1.35-.53M198.3,41V44c0,1.38.5,2.06,1.46,2.06a1.87,1.87,0,0,0,1.25-.5A2,2,0,0,0,201.6,44a2.32,2.32,0,0,0-1.25-2.37,5.28,5.28,0,0,0-2-.56"></path>
        <path class="cls-1" d="M214.36,39.91l1-4.32a7,7,0,0,1,2-3.74,4.8,4.8,0,0,1,3.32-1.26A5.12,5.12,0,0,1,224.16,32a4.83,4.83,0,0,1,1.58,3.8,4.64,4.64,0,0,1-1.58,3.86,5.44,5.44,0,0,1-3.46,1.26,3.65,3.65,0,0,1-1.39-.23,8.67,8.67,0,0,1-.88-.38c-.1.28-.24.77-.43,1.47s-.39,1.56-.59,2.53a31.09,31.09,0,0,0-.72,5.45H212.3v-1a12.68,12.68,0,0,0-.35-3.11c-.25-.9-.65-2.17-1.21-3.79a40.72,40.72,0,0,1-1.27-4.39,19.09,19.09,0,0,1-.44-4.16,10.55,10.55,0,0,1,1.85-5.38,11.15,11.15,0,0,1,4.23-3.59,12.58,12.58,0,0,1,5.52-1.26,12.3,12.3,0,0,1,6.09,1.5,10.57,10.57,0,0,1,4.11,4,11.3,11.3,0,0,1,1.45,5.73V49.74h-4.43V34.38a7.28,7.28,0,0,0-2-5.19,6.84,6.84,0,0,0-5.21-2.12,7.53,7.53,0,0,0-4,1A6.67,6.67,0,0,0,214,30.82a8.05,8.05,0,0,0-.92,3.83,10,10,0,0,0,.48,3.36,11,11,0,0,0,.77,1.9m6.34-6.06a1.76,1.76,0,0,0-1.36.53,2.07,2.07,0,0,0,0,2.63,1.68,1.68,0,0,0,1.36.56,1.75,1.75,0,0,0,1.35-.53,1.89,1.89,0,0,0,.49-1.32,1.94,1.94,0,0,0-.49-1.34,1.75,1.75,0,0,0-1.35-.53"></path>
        <path class="cls-1" d="M250.16,30.46c1.89,0,3.21.31,3.94.94s1.31,2.2,1.31,4.38v8.71a5.33,5.33,0,0,1-1.61,3.92,5.42,5.42,0,0,1-4,1.6,5.65,5.65,0,0,1-4-1.6,5.19,5.19,0,0,1-1.66-3.92,5.35,5.35,0,0,1,1.66-4.05,5.65,5.65,0,0,1,4-1.6,5.89,5.89,0,0,1,.79,0l.36,0V36.51c0-.92-.12-1.49-.36-1.67a2.45,2.45,0,0,0-1.67-.46H237.24V30.93a13.66,13.66,0,0,1,1.11-2.49,11,11,0,0,1,3-3.4,8.52,8.52,0,0,1,5.42-1.7,12.74,12.74,0,0,1,3.85.61,11.05,11.05,0,0,0,2.92.46,5.64,5.64,0,0,0,1.68-.21,3.79,3.79,0,0,0,.87-.32l1.46,3.85a3,3,0,0,1-1,.5,7.05,7.05,0,0,1-2.29.3,14.86,14.86,0,0,1-4-.58,10.59,10.59,0,0,0-3-.49,5.06,5.06,0,0,0-3.68,1.13,5.88,5.88,0,0,0-1.4,1.87Zm-.36,15.7a1.7,1.7,0,0,0,1.34-.56,2.05,2.05,0,0,0,.46-1.31,2,2,0,0,0-.46-1.33,1.92,1.92,0,0,0-2.7,0,2,2,0,0,0-.49,1.3,1.92,1.92,0,0,0,.53,1.31,1.75,1.75,0,0,0,1.32.56"></path>
        <path class="cls-1" d="M246.36,19a58.69,58.69,0,0,0-5.94.23c-1.48.15-2.51.28-3.1.37V16.56a14.53,14.53,0,0,1,2.76-4.85q2.26-2.93,7.23-2.92c3.55,0,6.06,1,7.5,2.94a13.31,13.31,0,0,1,2.63,4.83v3.6c-.89-.19-2.33-.42-4.35-.7a47.51,47.51,0,0,0-6.73-.43m.95-6.46a6.1,6.1,0,0,0-4.05,1.16,7.69,7.69,0,0,0-1.73,1.91c.26-.05.78-.13,1.58-.24a26,26,0,0,1,3.54-.18,23.43,23.43,0,0,1,4.26.35c1.25.22,2.12.39,2.66.52a6.51,6.51,0,0,0-1.85-2.16,6.67,6.67,0,0,0-4.41-1.36"></path>
        <path class="cls-1" d="M273.7,40.7l-.14,3,1.31-1.41a31.58,31.58,0,0,1,2.83-2.63,20.14,20.14,0,0,1,2.52-1.8,7.56,7.56,0,0,1,1.51-.72V23.41H286V36.58a11.74,11.74,0,0,1,2.42.57,7.74,7.74,0,0,1,3.22,2.16A6.69,6.69,0,0,1,293.33,44a5.43,5.43,0,0,1-1.94,4.45,6.42,6.42,0,0,1-4.2,1.6,5.86,5.86,0,0,1-3.89-1.3A4.49,4.49,0,0,1,281.73,45V42.09c-.34,0-1.45.85-3.29,2.54-1.12,1.06-2.18,2.17-3.21,3.36s-3,1.75-5.91,1.75V34.32l-.35,0c-.19,0-.46,0-.8,0a5.55,5.55,0,0,1-4-1.62,5.45,5.45,0,0,1-1.68-4.09,5.13,5.13,0,0,1,1.68-4,5.66,5.66,0,0,1,4-1.56,5.34,5.34,0,0,1,5.53,5.52Zm-5.53-13.63a1.59,1.59,0,0,0-1.27.53,1.79,1.79,0,0,0-.48,1.26,1.91,1.91,0,0,0,.48,1.31,1.53,1.53,0,0,0,1.27.56,1.7,1.7,0,0,0,1.34-.53,1.92,1.92,0,0,0,.47-1.34,1.83,1.83,0,0,0-.47-1.26,1.73,1.73,0,0,0-1.34-.53m17.71,14V44c0,1.38.49,2.06,1.46,2.06a1.87,1.87,0,0,0,1.25-.5,1.94,1.94,0,0,0,.58-1.56,2.33,2.33,0,0,0-1.24-2.37,5.28,5.28,0,0,0-2.05-.56"></path>
        <path class="cls-1" d="M306,41.43v8.31h-4.37V34.32l-.36,0c-.19,0-.45,0-.8,0a5.55,5.55,0,0,1-4-1.62,5.49,5.49,0,0,1-1.69-4.09,5.18,5.18,0,0,1,1.69-4,5.66,5.66,0,0,1,4-1.56,5.39,5.39,0,0,1,4,1.56,5.33,5.33,0,0,1,1.56,4v5.65l1.18-2.07,6.12-8.84h1.31a6.35,6.35,0,0,1,4,1c.82.79,1.23,2.24,1.23,4.33v21h-4.44V28.2h-.36Zm-5.53-14.36a1.64,1.64,0,0,0-1.27.53,1.84,1.84,0,0,0-.48,1.26,2,2,0,0,0,.48,1.31,1.57,1.57,0,0,0,1.27.56,1.67,1.67,0,0,0,1.34-.53,1.94,1.94,0,0,0,.49-1.34,1.85,1.85,0,0,0-.49-1.26,1.7,1.7,0,0,0-1.34-.53"></path>
        <path class="cls-1" d="M337.72,30.46c1.9,0,3.22.31,3.94.94Q343,32.51,343,35.78v8.71a5.32,5.32,0,0,1-1.6,3.92,5.46,5.46,0,0,1-4,1.6,5.59,5.59,0,0,1-4-1.6,5.17,5.17,0,0,1-1.68-3.92,5.33,5.33,0,0,1,1.68-4.05,5.59,5.59,0,0,1,4-1.6,5.81,5.81,0,0,1,.8,0l.35,0V36.51c0-.92-.11-1.49-.35-1.67a2.45,2.45,0,0,0-1.67-.46H324.81V30.93a16.21,16.21,0,0,1,1.11-2.49,10.91,10.91,0,0,1,3-3.4,8.37,8.37,0,0,1,5.38-1.7,12.87,12.87,0,0,1,3.87.61,10.87,10.87,0,0,0,2.92.46,5.62,5.62,0,0,0,1.67-.21,3.73,3.73,0,0,0,.88-.32l1.45,3.85a3.16,3.16,0,0,1-1,.5,7.12,7.12,0,0,1-2.3.3,15,15,0,0,1-4-.58,10.4,10.4,0,0,0-3-.49,5.1,5.1,0,0,0-3.7,1.13,6.54,6.54,0,0,0-1.42,1.87Zm-.35,15.7a1.69,1.69,0,0,0,1.34-.56,2.06,2.06,0,0,0,.47-1.31,2,2,0,0,0-.47-1.33,1.92,1.92,0,0,0-2.7,0,2,2,0,0,0-.48,1.3,2,2,0,0,0,.52,1.31,1.75,1.75,0,0,0,1.32.56"></path>
        <path class="cls-1" d="M339,9.89a4.7,4.7,0,0,1,3.47,1.45,4.75,4.75,0,0,1,1.42,3.5,5,5,0,0,1-1.53,3.91A4.89,4.89,0,0,1,339,20.16a5.64,5.64,0,0,1-4.56-2,7.47,7.47,0,0,1-1.64-5,8.31,8.31,0,0,1,1.83-5.29,8.83,8.83,0,0,1,5.23-3,8.32,8.32,0,0,0,3.85-1.45A3.82,3.82,0,0,0,344.87,2l3.35,1.65A6.34,6.34,0,0,1,346.74,6a7.2,7.2,0,0,1-4.42,1.89c-3.36.53-5,1.34-5,2.38l.59-.19A3.67,3.67,0,0,1,339,9.89m-2.19,4.95a1.82,1.82,0,0,0,.51,1.36,1.9,1.9,0,0,0,1.33.49,1.83,1.83,0,0,0,1.26-.49,1.77,1.77,0,0,0,.55-1.36,1.67,1.67,0,0,0-.55-1.34,1.85,1.85,0,0,0-1.26-.46,1.92,1.92,0,0,0-1.33.46,1.71,1.71,0,0,0-.51,1.34"></path>
        <path class="cls-1" d="M121.37,14.48h.45a2,2,0,0,1,2.06,2.05,1.88,1.88,0,0,1-.28,1,2.16,2.16,0,0,1-.75.72,2.06,2.06,0,0,1-1,.27,2,2,0,0,1-1.45-.6,1.94,1.94,0,0,1-.59-1.4V6.23a3,3,0,0,0-.47-1.95,2.37,2.37,0,0,0-1.26-.56,7.25,7.25,0,0,0-1.19-.13V2a4.37,4.37,0,0,1,1-1.09A3.19,3.19,0,0,1,120,.25a4.8,4.8,0,0,1,1.7.33,4.15,4.15,0,0,0,1.25.26,1.43,1.43,0,0,0,.48-.06l.18-.09L124,2.14a1.82,1.82,0,0,1-.38.17,2,2,0,0,1-.76.12,4.15,4.15,0,0,1-1.45-.29,4.22,4.22,0,0,0-1.4-.26,2.14,2.14,0,0,0-1,.19,1.58,1.58,0,0,0-.47.33,5,5,0,0,1,1.17.25,2.2,2.2,0,0,1,1.19.83,3,3,0,0,1,.52,1.91Zm.45,2.63a.61.61,0,0,0,.49-.21.71.71,0,0,0,.17-.46.75.75,0,0,0-.17-.49.63.63,0,0,0-.49-.19.63.63,0,0,0-.49.2.76.76,0,0,0-.17.48.67.67,0,0,0,.18.46.63.63,0,0,0,.48.21"></path>
        <path class="cls-1" d="M129.32,11.43a2.25,2.25,0,0,1,1.43.34,2.11,2.11,0,0,1,.46,1.58v3.16a1.91,1.91,0,0,1-.58,1.42,2,2,0,0,1-1.45.58,2.07,2.07,0,0,1-1.45-.58,1.86,1.86,0,0,1-.61-1.42,1.94,1.94,0,0,1,.61-1.47,2,2,0,0,1,1.45-.58h.42v-.86c0-.34,0-.54-.13-.61a.94.94,0,0,0-.6-.16h-4.23V11.59a5.87,5.87,0,0,1,.4-.9,4.09,4.09,0,0,1,1.08-1.23,3.07,3.07,0,0,1,1.95-.61,4.81,4.81,0,0,1,1.4.22,3.88,3.88,0,0,0,1.06.17,2.41,2.41,0,0,0,.6-.07,2.26,2.26,0,0,0,.32-.12l.53,1.39a.89.89,0,0,1-.38.17,2.35,2.35,0,0,1-.83.12,5.65,5.65,0,0,1-1.45-.21,4.13,4.13,0,0,0-1.09-.18,1.82,1.82,0,0,0-1.33.42,2,2,0,0,0-.51.67Zm-.14,5.68a.61.61,0,0,0,.49-.21.66.66,0,0,0,.17-.46.7.7,0,0,0-.17-.49.63.63,0,0,0-.49-.19.63.63,0,0,0-.49.2.76.76,0,0,0-.17.48.68.68,0,0,0,.19.46.59.59,0,0,0,.47.21"></path>
        <path class="cls-1" d="M137.39,12.85a2,2,0,0,1-1.46-.58,2,2,0,0,1-.6-1.49,1.84,1.84,0,0,1,.61-1.43,2,2,0,0,1,1.45-.56,1.86,1.86,0,0,1,1.43.57,1.91,1.91,0,0,1,.57,1.42v5.87A2,2,0,0,1,139,18.1a1.93,1.93,0,0,1-1.24.31h-.59l-4-4.57,1.22-1.05,3.44,3.91V12.82l-.11,0h-.3m0-2.65a.58.58,0,0,0-.46.2.66.66,0,0,0-.17.45.71.71,0,0,0,.17.47.55.55,0,0,0,.46.2.6.6,0,0,0,.49-.19.75.75,0,0,0,.16-.48.71.71,0,0,0-.16-.45.6.6,0,0,0-.49-.2"></path>
        <path class="cls-1" d="M150.88,15.49l-.09-1.44V8.88h1.59v9.53h-1.84l-2.22-5.56-.29-1-.24,1-2.22,5.56h-1.88V12.82l-.13,0h-.28a2,2,0,0,1-1.46-.59,2,2,0,0,1-.62-1.48,1.88,1.88,0,0,1,.62-1.43,2,2,0,0,1,1.46-.56,1.91,1.91,0,0,1,1.43.56,1.88,1.88,0,0,1,.57,1.43v3.27l-.11,1.44.45-1.44,2.09-5.17h.68l2,5.17Zm-7.6-5.29a.59.59,0,0,0-.47.2.66.66,0,0,0-.17.45.71.71,0,0,0,.17.47.56.56,0,0,0,.47.2.57.57,0,0,0,.47-.19.63.63,0,0,0,.18-.48.59.59,0,0,0-.18-.45.58.58,0,0,0-.47-.2"></path>
        <path class="cls-1" d="M157.87,13.52a4.94,4.94,0,0,0,.87.08l.37,0h.2V15h-.92a3.1,3.1,0,0,0-1.16.18c-.27.11-.42.39-.42.83a.83.83,0,0,0,.24.7,1.53,1.53,0,0,0,.82.16h2.38a1,1,0,0,0,.58-.14.89.89,0,0,0,.16-.62V8.88h1.62v7.6a2.1,2.1,0,0,1-.49,1.59,2.27,2.27,0,0,1-1.42.34h-3.57a2.33,2.33,0,0,1-1.42-.34,2.1,2.1,0,0,1-.47-1.59V16a1.9,1.9,0,0,1,.39-1.31,2,2,0,0,1,.66-.52,2.75,2.75,0,0,1-.82-.74,3.09,3.09,0,0,1-.53-2,2.64,2.64,0,0,1,.69-1.95,2.27,2.27,0,0,1,1.61-.67,2.09,2.09,0,0,1,1.48.56,1.86,1.86,0,0,1,.6,1.43,2,2,0,0,1-.59,1.47,2,2,0,0,1-1.49.57h-.32a1,1,0,0,0,.23.35,1.3,1.3,0,0,0,.72.37m-.63-3.32a.56.56,0,0,0-.47.2.62.62,0,0,0-.17.45.66.66,0,0,0,.17.48.61.61,0,0,0,.47.19.65.65,0,0,0,.5-.19.75.75,0,0,0,.16-.48.71.71,0,0,0-.16-.45.65.65,0,0,0-.5-.2"></path>
        <path class="cls-1" d="M168.74,18.41V11.93a1.57,1.57,0,0,0-.41-1.16,1.42,1.42,0,0,0-1-.43,1.72,1.72,0,0,0-1.16.44,2.65,2.65,0,0,0-.55.7l-1.24-.87a3.86,3.86,0,0,1,1-1.15,3,3,0,0,1,2.1-.67,2.88,2.88,0,0,1,2.05.76,2.94,2.94,0,0,1,.84,2.27v6.59Z"></path>
        <path class="cls-1" d="M174.77,16.84v-4a.49.49,0,0,0-.14,0h-.33a2,2,0,0,1-1.45-.59,2,2,0,0,1-.59-1.48,1.94,1.94,0,0,1,.28-1,1.9,1.9,0,0,1,.74-.72,2,2,0,0,1,1-.26,1.94,1.94,0,0,1,1.45.57,1.9,1.9,0,0,1,.6,1.42v6.06h2.49a1,1,0,0,0,.58-.14.83.83,0,0,0,.18-.62V8.88h1.6v7.6a2.24,2.24,0,0,1-.44,1.59,2.47,2.47,0,0,1-1.45.34h-6.12V16.84Zm-.47-6.64a.57.57,0,0,0-.48.2.65.65,0,0,0-.16.45.7.7,0,0,0,.17.48.6.6,0,0,0,.47.19.59.59,0,0,0,.46-.19.74.74,0,0,0,0-.93.58.58,0,0,0-.47-.2"></path>
        <path class="cls-1" d="M187.36,18.41V11.93a1.57,1.57,0,0,0-.42-1.16,1.44,1.44,0,0,0-1-.43,1.69,1.69,0,0,0-1.15.44,2.65,2.65,0,0,0-.55.7l-1.26-.87a4.48,4.48,0,0,1,1-1.15,3.09,3.09,0,0,1,2.1-.67,2.76,2.76,0,0,1,2.9,3v6.59Z"></path>
        <path class="cls-1" d="M191,11.17a5,5,0,0,1,1.23-1.5,4.1,4.1,0,0,1,2.85-.88,4.5,4.5,0,0,1,1.93.39,3.18,3.18,0,0,1,1.37,1.16,3.32,3.32,0,0,1,.51,1.86v6.21h-1.6V15.67a1.88,1.88,0,0,0-.37-.88,4,4,0,0,0-1-1,2.34,2.34,0,0,0-1.39-.46,1.07,1.07,0,0,0-.77.32,1,1,0,0,0-.31.72v.21a.66.66,0,0,0,.17,0,1.4,1.4,0,0,1,.34,0,1.93,1.93,0,0,1,2,2,1.88,1.88,0,0,1-.58,1.43,2,2,0,0,1-1.41.57,2,2,0,0,1-1.47-.58,1.9,1.9,0,0,1-.57-1.42V14.32a2.7,2.7,0,0,1,.3-1.24,2.39,2.39,0,0,1,.9-1,2.54,2.54,0,0,1,1.41-.38,2.94,2.94,0,0,1,1.89.59,4.46,4.46,0,0,1,1,1v-.82a1.76,1.76,0,0,0-.79-1.62,2.85,2.85,0,0,0-1.51-.5,2.76,2.76,0,0,0-1.88.56,2.93,2.93,0,0,0-.75.92Zm3,5.94a.6.6,0,0,0,.48-.21.76.76,0,0,0,.16-.46.8.8,0,0,0-.16-.49.62.62,0,0,0-.48-.19.64.64,0,0,0-.48.2.68.68,0,0,0-.19.48.63.63,0,0,0,.19.46.61.61,0,0,0,.48.21"></path>
      </g>
    </g>
  </g>
</svg>
